HIERARCHY
ROOT root
{
	OFFSET 0.000000 0.000000 0.000000
	CHANNELS 6 Xposition Yposition Zposition Zrotation Yrotation Xrotation
	JOINT lhip
	{
		OFFSET 0.058581 -0.082280 -0.017664
		CHANNELS 3 Zrotation Yrotation Xrotation
		JOINT lknee
		{
			OFFSET 0.043451 -0.386469 0.008037
			CHANNELS 3 Zrotation Yrotation Xrotation
			JOINT lankle
			{
				OFFSET -0.014790 -0.426874 -0.037428
				CHANNELS 3 Zrotation Yrotation Xrotation
				JOINT ltoe
				{
					OFFSET 0.041054 -0.060286 0.122042
					CHANNELS 3 Zrotation Yrotation Xrotation
					End Site
					{
						OFFSET 0.000000 0.000000 0.000000
					}
				}
			}
		}
	}
	JOINT rhip
	{
		OFFSET -0.060310 -0.090513 -0.013543
		CHANNELS 3 Zrotation Yrotation Xrotation
		JOINT rknee
		{
			OFFSET -0.043257 -0.383688 -0.004843
			CHANNELS 3 Zrotation Yrotation Xrotation
			JOINT rankle
			{
				OFFSET 0.019056 -0.420046 -0.034562
				CHANNELS 3 Zrotation Yrotation Xrotation
				JOINT rtoe
				{
					OFFSET -0.034840 -0.062106 0.130323
					CHANNELS 3 Zrotation Yrotation Xrotation
					End Site
					{
						OFFSET 0.000000 0.000000 0.000000
					}
				}
			}
		}
	}
	JOINT lowerback
	{
		OFFSET 0.004439 0.124404 -0.038385
		CHANNELS 3 Zrotation Yrotation Xrotation
		JOINT upperback
		{
			OFFSET 0.004488 0.137956 0.026820
			CHANNELS 3 Zrotation Yrotation Xrotation
			JOINT chest
			{
				OFFSET -0.002265 0.056032 0.002855
				CHANNELS 3 Zrotation Yrotation Xrotation
				JOINT lowerneck
				{
					OFFSET -0.013390 0.211636 -0.033468
					CHANNELS 3 Zrotation Yrotation Xrotation
					JOINT upperneck
					{
						OFFSET 0.010113 0.088937 0.050410
						CHANNELS 3 Zrotation Yrotation Xrotation
						End Site
						{
							OFFSET 0.000000 0.000000 0.000000
						}
					}
				}
				JOINT lclavicle
				{
					OFFSET 0.071702 0.114000 -0.018898
					CHANNELS 3 Zrotation Yrotation Xrotation
					JOINT lshoulder
					{
						OFFSET 0.122921 0.045205 -0.019046
						CHANNELS 3 Zrotation Yrotation Xrotation
						JOINT lelbow
						{
							OFFSET 0.255332 -0.015649 -0.022946
							CHANNELS 3 Zrotation Yrotation Xrotation
							JOINT lwrist
							{
								OFFSET 0.265709 0.012698 -0.007375
								CHANNELS 3 Zrotation Yrotation Xrotation
								End Site
								{
									OFFSET 0.000000 0.000000 0.000000
								}
							}
						}
					}
				}
				JOINT rclavicle
				{
					OFFSET -0.082954 0.112472 -0.023707
					CHANNELS 3 Zrotation Yrotation Xrotation
					JOINT rshoulder
					{
						OFFSET -0.113228 0.046853 -0.008472
						CHANNELS 3 Zrotation Yrotation Xrotation
						JOINT relbow
						{
							OFFSET -0.260127 -0.014369 -0.031269
							CHANNELS 3 Zrotation Yrotation Xrotation
							JOINT rwrist
							{
								OFFSET -0.269108 0.006794 -0.006027
								CHANNELS 3 Zrotation Yrotation Xrotation
								End Site
								{
									OFFSET 0.000000 0.000000 0.000000
								}
							}
						}
					}
				}
			}
		}
	}
}
MOTION
Frames: 14
Frame Time: 0.033333
1.150201 1.082512 0.991383 -84.046575 -3.530801 85.862902 9.774118 -9.222295 -39.867695 -9.131057 2.551386 55.102230 1.502603 5.642075 -22.040437 0.000000 -0.000000 0.000000 -7.290064 -2.580877 5.435341 0.802390 2.875608 13.096675 3.861074 -4.243430 -17.223329 0.000000 -0.000000 0.000000 -1.916020 10.180806 17.566358 3.187539 -4.477534 6.051414 -0.251123 -0.127613 6.896026 3.234432 0.997914 7.716228 3.836009 -6.593184 15.905631 -23.784788 3.050762 2.662358 -59.283503 -7.434119 7.076374 11.549610 -33.375434 3.688027 -0.538371 -1.880581 -12.213735 24.474298 -0.469460 0.630045 56.714060 7.248730 9.180992 -20.162510 35.587114 -7.748792 4.399560 -0.760422 -8.456157 
1.139752 1.069644 0.991999 -84.739737 -3.299490 86.004010 9.052903 -9.018891 -38.995801 -8.921726 2.878075 55.626789 2.027719 6.227174 -23.995865 0.000000 -0.000000 0.000000 -7.860047 -2.676350 6.552274 0.603295 3.791109 11.734360 4.440977 -4.675980 -16.289762 0.000000 -0.000000 0.000000 -2.137199 10.867914 18.003660 3.003504 -4.247260 6.256997 -0.216685 -0.065406 6.843329 3.384444 0.746399 7.309318 4.157716 -6.526706 15.631973 -23.580944 2.655737 2.732967 -58.948307 -7.687874 6.826173 11.432957 -33.011991 3.643296 -0.141132 -2.106713 -12.203343 24.115848 -0.178827 0.451182 57.218276 7.005370 9.538938 -20.378880 35.109023 -7.824083 4.225962 -1.364990 -8.599363 
1.129111 1.055676 0.993287 -85.835046 -3.484261 86.759950 8.282184 -9.368186 -38.639075 -8.894469 3.750485 55.808918 2.562063 7.255909 -25.476479 0.000000 -0.000000 0.000000 -9.034123 -2.381368 6.261957 0.348222 4.159330 11.709620 5.525371 -4.190633 -14.681356 0.000000 -0.000000 0.000000 -2.981540 11.598166 17.849266 2.793199 -4.072798 5.838843 -0.181634 -0.018414 6.945885 3.530342 0.336794 7.626919 4.393820 -6.672173 15.199888 -23.457176 2.811742 2.963513 -58.616470 -7.763490 6.608821 11.213287 -32.740625 3.393820 0.206475 -2.019251 -11.640662 24.083936 -0.620302 0.359549 57.354004 6.751326 9.812470 -20.187779 35.457521 -7.493213 5.012681 -1.311926 -8.169079 
1.118386 1.040523 0.997070 -86.292341 -3.387461 87.491244 7.441947 -9.998751 -38.378197 -8.672135 4.382750 55.701095 3.396201 8.160641 -26.131777 0.000000 -0.000000 0.000000 -10.053222 -2.628193 6.161363 0.115135 4.542393 11.384596 6.690577 -3.682108 -11.470604 0.000000 -0.000000 0.000000 -3.325575 11.649982 17.591138 2.555816 -4.202210 5.500341 -0.341820 -0.035225 7.263811 3.510360 0.508899 7.614419 4.401022 -6.431038 15.104020 -23.440407 2.995111 2.959424 -58.305758 -7.804166 6.717370 11.169412 -32.304809 2.582531 0.256049 -2.237037 -11.367855 24.229275 -0.872319 0.321647 57.324910 6.171057 10.571544 -20.409352 35.776458 -8.046436 4.761291 -1.062875 -8.051745 
1.108071 1.025127 1.004280 -87.476539 -2.894784 88.025257 6.593540 -9.648755 -36.934064 -8.387880 4.485695 54.326937 3.842868 8.643115 -26.720022 0.000000 -0.000000 0.000000 -10.857364 -2.938124 5.412316 0.189205 5.371575 11.841149 8.113973 -2.982183 -6.918434 0.000000 -0.000000 0.000000 -3.331631 11.770839 17.146157 2.392926 -3.959826 5.780497 -0.422296 -0.090909 7.364120 3.451708 -0.032970 7.317097 4.895016 -6.117578 14.683312 -23.676099 2.787612 2.816242 -58.359576 -7.971890 6.544856 11.229672 -31.054505 2.127269 0.420203 -2.180156 -10.930594 24.147817 -1.028990 0.240173 57.574280 5.860099 10.892497 -20.557148 34.942112 -8.553523 5.675456 -1.511334 -8.515207 
1.098719 1.010017 1.015212 -88.762121 -2.144257 88.572229 5.901067 -9.111490 -35.077165 -8.149466 4.243109 52.150647 4.406003 9.252600 -26.556463 0.000000 -0.000000 0.000000 -11.108246 -3.346847 3.379840 0.105599 5.947547 14.152177 8.756494 -1.786406 -2.155779 0.000000 -0.000000 0.000000 -3.340550 11.435362 16.682888 2.364716 -3.640425 5.823120 -0.343197 -0.188523 7.489163 3.435398 -0.398201 7.707763 4.815534 -5.776724 14.348394 -23.666710 2.802212 2.950763 -58.893419 -8.250078 6.289958 11.262022 -29.932291 1.429825 0.368022 -2.054295 -10.832669 23.995482 -1.288275 0.486745 57.724102 5.825885 10.638661 -20.259506 34.547756 -8.994004 4.043961 -1.374309 -7.560792 
1.088810 0.996677 1.028342 -89.562508 -1.100202 88.845736 5.466790 -8.072920 -32.575578 -8.060411 3.610782 49.136824 4.792770 9.290818 -26.004502 0.000000 -0.000000 0.000000 -10.447321 -3.888819 1.506479 -0.173063 6.730599 16.544688 9.211447 -1.592227 1.972663 0.000000 -0.000000 0.000000 -3.400935 10.495032 16.670650 2.506772 -3.482570 5.434109 -0.033061 -0.351209 7.459167 2.874054 -0.784942 8.407515 5.271282 -4.789212 14.240523 -23.617490 3.031327 3.360601 -59.313657 -7.975465 5.989839 11.044733 -29.876739 1.646176 0.037141 -1.985504 -10.684525 23.710796 -1.546270 0.899596 58.138388 5.475250 10.424807 -20.104605 33.896650 -9.128081 5.041395 -1.461407 -7.188489 
1.081670 0.984358 1.041582 -90.836011 -0.489855 89.182023 4.916267 -6.985674 -30.012401 -8.178358 3.180227 45.421137 5.066408 9.487050 -25.102786 0.000000 -0.000000 0.000000 -9.465502 -3.098702 -2.278036 -0.449838 6.962879 21.930534 7.845596 -2.969833 2.822388 0.000000 -0.000000 0.000000 -3.949393 9.589956 15.980449 2.627670 -3.169608 6.423412 0.041238 -0.418324 7.307996 2.925348 -0.010095 8.053253 5.087887 -4.237132 14.200049 -23.298028 3.004146 3.279030 -59.345877 -7.863382 5.974993 10.566582 -30.378002 1.846224 -0.490685 -1.707019 -10.882771 23.589404 -1.507212 0.973914 58.742658 5.080025 10.648125 -20.622889 33.290502 -9.918364 6.125805 -1.536517 -6.941463 
1.073615 0.973795 1.055280 -90.550287 0.251350 88.418516 4.010764 -6.336396 -26.152581 -8.315110 1.408583 41.261058 4.884216 9.762109 -23.919858 0.000000 -0.000000 0.000000 -7.819023 -1.629154 -4.310215 -0.944912 4.994603 28.018419 5.756753 -5.593907 -1.839508 0.000000 -0.000000 0.000000 -4.033003 8.005189 16.307993 2.860938 -3.352754 7.973878 0.049053 -0.675263 6.762271 3.351395 0.353313 7.748876 4.849715 -4.539699 13.771594 -22.954521 2.351198 3.272685 -59.067891 -7.498085 6.379454 10.399795 -31.245912 2.198623 -0.009758 -2.041183 -11.262591 23.426180 -1.202295 0.538825 59.374051 3.734344 10.741283 -20.914366 33.170880 -10.528618 6.654670 -1.691344 -7.460634 
1.065690 0.964224 1.068929 -90.150567 0.727671 87.755105 2.930484 -6.186043 -22.350294 -8.191971 -0.571984 37.005480 4.106868 10.401746 -22.579863 0.000000 -0.000000 0.000000 -6.702550 -0.131915 -6.126942 -1.454263 1.847803 33.533734 5.376966 -7.082675 -5.815030 0.000000 -0.000000 0.000000 -3.889092 6.300647 17.975644 2.568234 -3.470583 6.238898 0.063736 -1.110156 7.082224 3.543787 0.687289 8.648317 4.778363 -4.149347 13.468111 -23.104839 2.349334 3.643037 -58.159132 -7.072158 6.407684 10.293526 -32.246386 2.000650 -0.026474 -2.211414 -10.661315 23.407743 -1.510257 0.285022 59.767272 2.235799 10.653395 -19.683315 32.345422 -9.656531 5.660272 -1.507928 -6.344950 
1.058926 0.956930 1.082088 -89.714180 1.525791 86.869310 2.272427 -4.622852 -18.540319 -8.293249 -3.519483 33.194455 4.381441 10.684002 -21.209981 0.000000 -0.000000 0.000000 -4.969919 0.239038 -7.700504 -1.600832 -0.179321 38.572836 4.799267 -8.008598 -8.492815 0.000000 -0.000000 0.000000 -3.553150 4.672682 19.267204 2.812877 -3.136127 5.110639 -0.238387 -1.692106 7.680147 4.392990 0.948639 9.386758 3.733520 -4.877575 13.018503 -23.802012 3.393786 3.663783 -56.546400 -8.214390 8.339956 10.018188 -32.576618 3.542617 1.417319 -1.786189 -14.489181 23.980520 -2.947261 0.311474 59.633588 2.122993 11.794508 -19.368639 30.711868 -6.813061 7.026743 -0.157938 -8.017041 
1.051651 0.950106 1.093697 -89.119573 2.267577 86.452357 2.009440 -3.894290 -15.262257 -8.006783 -5.677539 29.314152 3.840301 10.774653 -19.903485 0.000000 -0.000000 0.000000 -2.965654 0.710364 -9.336177 -1.341711 -1.355643 42.307635 4.356789 -8.753949 -10.613447 0.000000 -0.000000 0.000000 -3.439650 3.225259 19.160853 2.983107 -3.194324 5.264364 -0.197435 -1.890608 7.492638 4.513434 0.782051 10.308547 3.969046 -5.048760 12.671038 -23.969689 3.369955 3.717383 -56.315284 -8.584460 8.212194 10.560487 -32.887220 2.540493 1.677308 -1.491334 -14.568158 23.713277 -3.458695 0.424192 60.015340 0.810522 11.290246 -18.954189 29.834849 -6.148151 7.454399 -0.096994 -8.551767 
1.045980 0.943714 1.103788 -89.586421 2.735479 86.255048 1.896504 -3.466933 -12.360748 -7.643812 -6.614107 25.558534 3.471577 11.172239 -18.864755 0.000000 -0.000000 0.000000 -1.157504 1.950827 -11.244550 -0.989381 -2.113392 44.729911 4.240862 -8.864303 -12.302104 0.000000 -0.000000 0.000000 -3.506316 2.375824 18.530400 2.972515 -2.872666 5.593358 -0.201367 -2.028296 7.540479 4.759841 0.780619 10.735375 3.910910 -5.258048 12.620902 -23.950175 3.650838 3.236641 -56.436741 -8.961156 8.462326 11.170380 -33.419004 1.076078 2.374298 -1.165608 -14.900159 23.553717 -3.919847 0.284880 60.312077 -0.106113 11.259388 -18.232191 28.379556 -5.360738 6.838356 -0.045433 -7.756682 
1.039582 0.937943 1.112299 -89.888642 3.206633 85.999020 1.736284 -3.017751 -9.485473 -7.114849 -7.757784 21.965721 3.092446 11.690660 -17.905681 0.000000 -0.000000 0.000000 0.684558 3.098518 -12.316700 -0.472555 -2.544069 45.073969 4.228604 -9.111735 -13.922550 0.000000 -0.000000 0.000000 -3.487084 1.421928 18.191103 2.920526 -2.571736 5.453710 -0.165476 -2.161809 7.292928 4.806192 0.771040 11.547315 3.834886 -5.134414 12.788229 -24.171462 4.138599 3.258776 -56.393158 -9.123288 8.338791 11.601275 -34.400209 -0.525962 2.827423 -0.667003 -15.322786 23.382135 -4.611768 0.451660 60.467689 -1.129285 10.995047 -17.600431 27.358172 -4.722199 6.578744 -0.359095 -7.503687 
